<?xml version="1.0" encoding="UTF-8" standalone="no"?>
<svg width="780px" height="230px" viewBox="0 0 780 230" version="1.1" xmlns="http://www.w3.org/2000/svg" xmlns:xlink="http://www.w3.org/1999/xlink" xmlns:sketch="http://www.bohemiancoding.com/sketch/ns">
    <title>christmas</title>
    <description>Created with Sketch (http://www.bohemiancoding.com/sketch)</description>
    <defs></defs>
    <g id="Page-1" stroke="none" stroke-width="1" fill="none" fill-rule="evenodd" sketch:type="MSPage">
        <g id="christmas" sketch:type="MSArtboardGroup">
            <path d="M482.537487,133.644652 C499.562346,133.644652 513.363719,119.843278 513.363719,102.81842 C513.363719,85.7935608 499.562346,71.9921875 482.537487,71.9921875 C465.512628,71.9921875 451.711255,85.7935608 451.711255,102.81842 C451.711255,119.843278 465.512628,133.644652 482.537487,133.644652 Z" id="sun" stroke="#DDDDDD" stroke-width="3" sketch:type="MSShapeGroup"></path>
            <path d="M183.993981,158.924606 L229.577167,148.91854 L256.815899,141.691938 C256.815899,141.691938 284.610525,123.903378 289.057665,123.903378 C293.504805,123.903378 308.513902,118.900345 308.513902,118.900345 L314.62872,120.568023 L322.411215,118.344453 L332.41728,120.568023 L345.7587,114.453205 L355.764765,114.453205 L362.991368,110.561958 L374.665111,103.335355 L382.447606,100.555893 L389.118316,102.779463 L400.236166,100 L410.242231,107.226603 L420.804189,103.891248 L466.387374,127.238733 L471.946299,126.68284 L485.843612,132.241765 L528.647335,145.583185 L544.212325,149.474433 L564.780347,155.589251 L616.47835,166.151208 L794.028407,237.137103 L-28.8733159,243.996377 L183.993981,158.924606 Z" id="mttam" stroke="#DDDDDD" stroke-width="3" fill="#FFFFFF" sketch:type="MSShapeGroup"></path>
            <g id="trees" sketch:type="MSLayerGroup" transform="translate(3.000000, 88.000000)" stroke-width="3" stroke="#DDDDDD">
                <polygon id="Triangle-1" sketch:type="MSShapeGroup" points="44.2299697 -0.0703125 88.4599394 145.296976 0 145.296976 "></polygon>
                <polygon id="Triangle-1-copy" sketch:type="MSShapeGroup" points="98.8090975 40.497303 130.69582 145.296976 66.9223752 145.296976 "></polygon>
                <polygon id="Triangle-1-copy-2" sketch:type="MSShapeGroup" points="716.51801 34.328125 753.232198 151 679.803822 151 "></polygon>
                <polygon id="Triangle-1-copy-3" sketch:type="MSShapeGroup" points="679.803822 58.3789062 708.949734 151 650.65791 151 "></polygon>
                <polygon id="Triangle-1-copy-4" sketch:type="MSShapeGroup" points="753.232198 73.3980867 777.65189 151 728.812506 151 "></polygon>
                <polygon id="Triangle-1-copy-5" sketch:type="MSShapeGroup" points="647.198818 73.3980867 671.61851 151 622.779126 151 "></polygon>
            </g>
            <g id="snowman-+-hat" sketch:type="MSLayerGroup" transform="translate(146.000000, 184.937500)" stroke="#DDDDDD" stroke-width="3">
                <g id="snowman" transform="translate(0.000000, 8.625000)" sketch:type="MSShapeGroup">
                    <ellipse id="Oval-1" cx="11.4171753" cy="36.0531903" rx="11.4171753" ry="11.4171753"></ellipse>
                    <ellipse id="Oval-1-copy" cx="11.4171753" cy="20.7486238" rx="9.17851347" ry="9.17851347"></ellipse>
                    <ellipse id="Oval-1-copy-2" cx="11.4171753" cy="7.65245214" rx="7.94724947" ry="7.94724947"></ellipse>
                </g>
                <g id="hat" transform="translate(4.312500, 0.000000)" fill="#DDDDDD" sketch:type="MSShapeGroup">
                    <rect id="Rectangle-2" x="2.78466302" y="0.191735177" width="8.64002455" height="8.64002455"></rect>
                    <rect id="Rectangle-2-copy" x="0.00751227302" y="6.36318128" width="14.194326" height="3.70286766"></rect>
                </g>
            </g>
            <path d="M273.253906,212 L271.443359,212 L271.443359,199.361328 L256.431641,199.361328 L256.431641,212 L254.638672,212 L254.638672,186.300781 L256.431641,186.300781 L256.431641,197.708984 L271.443359,197.708984 L271.443359,186.300781 L273.253906,186.300781 L273.253906,212 Z M292.90625,202.929688 L282.464844,202.929688 L278.878906,212 L276.892578,212 L287.228516,186.195312 L288.371094,186.195312 L298.496094,212 L296.474609,212 L292.90625,202.929688 Z M283.115234,201.3125 L292.308594,201.3125 L288.810547,192.048828 C288.517577,191.322262 288.166018,190.31446 287.755859,189.025391 C287.439452,190.150396 287.093752,191.169917 286.71875,192.083984 L283.115234,201.3125 Z M317.603516,193.683594 C317.603516,196.167981 316.759774,198.072259 315.072266,199.396484 C313.384757,200.72071 310.994156,201.382812 307.900391,201.382812 L303.927734,201.382812 L303.927734,212 L302.134766,212 L302.134766,186.300781 L308.427734,186.300781 C314.544952,186.300781 317.603516,188.761694 317.603516,193.683594 Z M303.927734,199.835938 L307.460938,199.835938 C310.355483,199.835938 312.447259,199.358403 313.736328,198.40332 C315.025397,197.448237 315.669922,195.898448 315.669922,193.753906 C315.669922,191.773428 315.060553,190.305669 313.841797,189.350586 C312.623041,188.395503 310.736341,187.917969 308.181641,187.917969 L303.927734,187.917969 L303.927734,199.835938 Z M338.662109,193.683594 C338.662109,196.167981 337.818368,198.072259 336.130859,199.396484 C334.443351,200.72071 332.05275,201.382812 328.958984,201.382812 L324.986328,201.382812 L324.986328,212 L323.193359,212 L323.193359,186.300781 L329.486328,186.300781 C335.603546,186.300781 338.662109,188.761694 338.662109,193.683594 Z M324.986328,199.835938 L328.519531,199.835938 C331.414077,199.835938 333.505853,199.358403 334.794922,198.40332 C336.083991,197.448237 336.728516,195.898448 336.728516,193.753906 C336.728516,191.773428 336.119147,190.305669 334.900391,189.350586 C333.681635,188.395503 331.794935,187.917969 329.240234,187.917969 L324.986328,187.917969 L324.986328,199.835938 Z M350.158203,200.363281 L357.681641,186.300781 L359.615234,186.300781 L351.054688,202.068359 L351.054688,212 L349.208984,212 L349.208984,202.208984 L340.613281,186.300781 L342.669922,186.300781 L350.158203,200.363281 Z M391.220703,212 L389.410156,212 L389.410156,199.361328 L374.398438,199.361328 L374.398438,212 L372.605469,212 L372.605469,186.300781 L374.398438,186.300781 L374.398438,197.708984 L389.410156,197.708984 L389.410156,186.300781 L391.220703,186.300781 L391.220703,212 Z M420.101562,199.115234 C420.101562,203.19338 419.082041,206.418933 417.042969,208.791992 C415.003896,211.165051 412.191424,212.351562 408.605469,212.351562 C405.031232,212.351562 402.22462,211.165051 400.185547,208.791992 C398.146474,206.418933 397.126953,203.181661 397.126953,199.080078 C397.126953,194.990214 398.155263,191.77052 400.211914,189.420898 C402.268565,187.071277 405.078107,185.896484 408.640625,185.896484 C412.22658,185.896484 415.033193,187.077137 417.060547,189.438477 C419.087901,191.799816 420.101562,195.02537 420.101562,199.115234 Z M399.078125,199.115234 C399.078125,202.79494 399.898429,205.639638 401.539062,207.649414 C403.179696,209.65919 405.535141,210.664062 408.605469,210.664062 C411.699234,210.664062 414.063468,209.667979 415.698242,207.675781 C417.333016,205.683584 418.150391,202.830097 418.150391,199.115234 C418.150391,195.412091 417.333016,192.573252 415.698242,190.598633 C414.063468,188.624014 411.710953,187.636719 408.640625,187.636719 C405.582016,187.636719 403.223641,188.632803 401.56543,190.625 C399.907218,192.617197 399.078125,195.447247 399.078125,199.115234 Z M426.007812,212 L426.007812,186.300781 L427.800781,186.300781 L427.800781,210.3125 L440.052734,210.3125 L440.052734,212 L426.007812,212 Z M444.482422,212 L444.482422,186.300781 L446.275391,186.300781 L446.275391,212 L444.482422,212 Z M473.064453,198.904297 C473.064453,203.216818 471.933605,206.477528 469.671875,208.686523 C467.410145,210.895519 464.087913,212 459.705078,212 L453.552734,212 L453.552734,186.300781 L460.496094,186.300781 C464.597677,186.300781 467.717763,187.373036 469.856445,189.517578 C471.995128,191.66212 473.064453,194.790995 473.064453,198.904297 Z M471.113281,198.974609 C471.113281,195.294903 470.17872,192.526376 468.30957,190.668945 C466.44042,188.811514 463.695331,187.882812 460.074219,187.882812 L455.345703,187.882812 L455.345703,210.417969 L459.599609,210.417969 C467.275429,210.417969 471.113281,206.603554 471.113281,198.974609 Z M490.625,202.929688 L480.183594,202.929688 L476.597656,212 L474.611328,212 L484.947266,186.195312 L486.089844,186.195312 L496.214844,212 L494.193359,212 L490.625,202.929688 Z M480.833984,201.3125 L490.027344,201.3125 L486.529297,192.048828 C486.236327,191.322262 485.884768,190.31446 485.474609,189.025391 C485.158202,190.150396 484.812502,191.169917 484.4375,192.083984 L480.833984,201.3125 Z M503.597656,200.363281 L511.121094,186.300781 L513.054688,186.300781 L504.494141,202.068359 L504.494141,212 L502.648438,212 L502.648438,202.208984 L494.052734,186.300781 L496.109375,186.300781 L503.597656,200.363281 Z M530.878906,205.373047 C530.878906,207.517589 530.090828,209.216791 528.514648,210.470703 C526.938469,211.724616 524.843763,212.351562 522.230469,212.351562 C519.089828,212.351562 516.681649,212.005863 515.005859,211.314453 L515.005859,209.521484 C516.857431,210.306645 519.218736,210.699219 522.089844,210.699219 C524.199229,210.699219 525.872064,210.215825 527.108398,209.249023 C528.344733,208.282222 528.962891,207.01368 528.962891,205.443359 C528.962891,204.470698 528.757815,203.665042 528.347656,203.026367 C527.937498,202.387692 527.269536,201.80469 526.34375,201.277344 C525.417964,200.749997 524.058603,200.181644 522.265625,199.572266 C519.640612,198.669917 517.827153,197.694341 516.825195,196.645508 C515.823237,195.596674 515.322266,194.199227 515.322266,192.453125 C515.322266,190.53124 516.075188,188.963873 517.581055,187.750977 C519.086922,186.53808 521.023426,185.931641 523.390625,185.931641 C525.8047,185.931641 528.072255,186.388667 530.193359,187.302734 L529.542969,188.849609 C527.410146,187.95898 525.371103,187.513672 523.425781,187.513672 C521.527334,187.513672 520.015631,187.953121 518.890625,188.832031 C517.765619,189.710942 517.203125,190.906242 517.203125,192.417969 C517.203125,193.367192 517.375975,194.146481 517.72168,194.755859 C518.067385,195.365237 518.632809,195.913084 519.417969,196.399414 C520.203129,196.885745 521.550772,197.468747 523.460938,198.148438 C525.464854,198.839847 526.970698,199.510739 527.978516,200.161133 C528.986333,200.811527 529.721677,201.549801 530.18457,202.375977 C530.647463,203.202153 530.878906,204.201166 530.878906,205.373047 Z" id="HAPPY-HOLIDAYS" fill="#DDDDDD" sketch:type="MSShapeGroup"></path>
        </g>
    </g>
</svg>