<?xml version="1.0" encoding="UTF-8" standalone="no"?>
<svg width="780px" height="230px" viewBox="0 0 780 230" version="1.1" xmlns="http://www.w3.org/2000/svg" xmlns:xlink="http://www.w3.org/1999/xlink" xmlns:sketch="http://www.bohemiancoding.com/sketch/ns">
    <title>code</title>
    <description>Created with Sketch (http://www.bohemiancoding.com/sketch)</description>
    <defs></defs>
    <g id="Page-1" stroke="none" stroke-width="1" fill="none" fill-rule="evenodd" sketch:type="MSPage">
        <g id="code" sketch:type="MSArtboardGroup">
            <g id="persona-copy" sketch:type="MSLayerGroup" transform="translate(79.000000, 16.000000)">
                <rect d="M1,0 L1,229 L641,229 L641,0 L1,0 Z M1,0" id="desktop-copy" stroke="#DDDDDD" stroke-width="4" sketch:type="MSShapeGroup" x="1" y="0" width="640" height="229"></rect>
                <rect d="M0,45 L0,49 L642,49 L642,45 L0,45 Z M0,45" id="Rectangle-6-copy" fill="#DDDDDD" sketch:type="MSShapeGroup" x="0" y="45" width="642" height="4"></rect>
                <path d="M15.5,88 L15.5,73 L27.5,73 L27.5,88 L15.5,88 Z M15.5,112 L15.5,97 L27.5,97 L27.5,112 L15.5,112 Z M15.5,136 L15.5,121 L27.5,121 L27.5,136 L15.5,136 Z M15.5,160 L15.5,145 L27.5,145 L27.5,160 L15.5,160 Z M15.5,184 L15.5,169 L27.5,169 L27.5,184 L15.5,184 Z M15.5,208 L15.5,193 L27.5,193 L27.5,208 L15.5,208 Z M15.5,232 L15.5,217 L27.5,217 L27.5,232 L15.5,232 Z M15.5,232" id="1" fill="#DDDDDD" sketch:type="MSShapeGroup"></path>
                <path d="M85.5,88 L85.5,73 L97.5,73 L97.5,88 L85.5,88 Z M97.5,88 L97.5,73 L109.5,73 L109.5,88 L97.5,88 Z M109.5,88 L109.5,73 L121.5,73 L121.5,88 L109.5,88 Z M121.5,88 L121.5,73 L133.5,73 L133.5,88 L121.5,88 Z M133.5,88 L133.5,73 L145.5,73 L145.5,88 L133.5,88 Z M145.5,88 L145.5,73 L157.5,73 L157.5,88 L145.5,88 Z M157.5,88 L157.5,73 L169.5,73 L169.5,88 L157.5,88 Z M169.5,88 L169.5,73 L181.5,73 L181.5,88 L169.5,88 Z M181.5,88 L181.5,73 L193.5,73 L193.5,88 L181.5,88 Z M193.5,88 L193.5,73 L205.5,73 L205.5,88 L193.5,88 Z M205.5,88 L205.5,73 L217.5,73 L217.5,88 L205.5,88 Z M217.5,88 L217.5,73 L229.5,73 L229.5,88 L217.5,88 Z M229.5,88 L229.5,73 L241.5,73 L241.5,88 L229.5,88 Z M241.5,88 L241.5,73 L253.5,73 L253.5,88 L241.5,88 Z M253.5,88 L253.5,73 L265.5,73 L265.5,88 L253.5,88 Z M271.5,88 L271.5,73 L283.5,73 L283.5,88 L271.5,88 Z M97.5,112 L97.5,97 L109.5,97 L109.5,112 L97.5,112 Z M109.5,112 L109.5,97 L121.5,97 L121.5,112 L109.5,112 Z M121.5,112 L121.5,97 L133.5,97 L133.5,112 L121.5,112 Z M133.5,112 L133.5,97 L145.5,97 L145.5,112 L133.5,112 Z M145.5,112 L145.5,97 L157.5,97 L157.5,112 L145.5,112 Z M157.5,112 L157.5,97 L169.5,97 L169.5,112 L157.5,112 Z M169.5,112 L169.5,97 L181.5,97 L181.5,112 L169.5,112 Z M181.5,112 L181.5,97 L193.5,97 L193.5,112 L181.5,112 Z M193.5,112 L193.5,97 L205.5,97 L205.5,112 L193.5,112 Z M205.5,112 L205.5,97 L217.5,97 L217.5,112 L205.5,112 Z M217.5,112 L217.5,97 L229.5,97 L229.5,112 L217.5,112 Z M235.5,112 L235.5,97 L247.5,97 L247.5,112 L235.5,112 Z M247.5,112 L247.5,97 L259.5,97 L259.5,112 L247.5,112 Z M259.5,112 L259.5,97 L271.5,97 L271.5,112 L259.5,112 Z M271.5,112 L271.5,97 L283.5,97 L283.5,112 L271.5,112 Z M283.5,112 L283.5,97 L295.5,97 L295.5,112 L283.5,112 Z M295.5,112 L295.5,97 L307.5,97 L307.5,112 L295.5,112 Z M307.5,112 L307.5,97 L319.5,97 L319.5,112 L307.5,112 Z M319.5,112 L319.5,97 L331.5,97 L331.5,112 L319.5,112 Z M331.5,112 L331.5,97 L343.5,97 L343.5,112 L331.5,112 Z M343.5,112 L343.5,97 L355.5,97 L355.5,112 L343.5,112 Z M97.5,136 L97.5,121 L109.5,121 L109.5,136 L97.5,136 Z M109.5,136 L109.5,121 L121.5,121 L121.5,136 L109.5,136 Z M121.5,136 L121.5,121 L133.5,121 L133.5,136 L121.5,136 Z M133.5,136 L133.5,121 L145.5,121 L145.5,136 L133.5,136 Z M145.5,136 L145.5,121 L157.5,121 L157.5,136 L145.5,136 Z M157.5,136 L157.5,121 L169.5,121 L169.5,136 L157.5,136 Z M169.5,136 L169.5,121 L181.5,121 L181.5,136 L169.5,136 Z M181.5,136 L181.5,121 L193.5,121 L193.5,136 L181.5,136 Z M193.5,136 L193.5,121 L205.5,121 L205.5,136 L193.5,136 Z M205.5,136 L205.5,121 L217.5,121 L217.5,136 L205.5,136 Z M217.5,136 L217.5,121 L229.5,121 L229.5,136 L217.5,136 Z M229.5,136 L229.5,121 L241.5,121 L241.5,136 L229.5,136 Z M241.5,136 L241.5,121 L253.5,121 L253.5,136 L241.5,136 Z M259.5,136 L259.5,121 L271.5,121 L271.5,136 L259.5,136 Z M109.5,160 L109.5,145 L121.5,145 L121.5,160 L109.5,160 Z M121.5,160 L121.5,145 L133.5,145 L133.5,160 L121.5,160 Z M133.5,160 L133.5,145 L145.5,145 L145.5,160 L133.5,160 Z M145.5,160 L145.5,145 L157.5,145 L157.5,160 L145.5,160 Z M157.5,160 L157.5,145 L169.5,145 L169.5,160 L157.5,160 Z M169.5,160 L169.5,145 L181.5,145 L181.5,160 L169.5,160 Z M181.5,160 L181.5,145 L193.5,145 L193.5,160 L181.5,160 Z M193.5,160 L193.5,145 L205.5,145 L205.5,160 L193.5,160 Z M211.5,160 L211.5,145 L223.5,145 L223.5,160 L211.5,160 Z M223.5,160 L223.5,145 L235.5,145 L235.5,160 L223.5,160 Z M235.5,160 L235.5,145 L247.5,145 L247.5,160 L235.5,160 Z M247.5,160 L247.5,145 L259.5,145 L259.5,160 L247.5,160 Z M265.5,160 L265.5,145 L277.5,145 L277.5,160 L265.5,160 Z M283.5,160 L283.5,145 L295.5,145 L295.5,160 L283.5,160 Z M295.5,160 L295.5,145 L307.5,145 L307.5,160 L295.5,160 Z M307.5,160 L307.5,145 L319.5,145 L319.5,160 L307.5,160 Z M319.5,160 L319.5,145 L331.5,145 L331.5,160 L319.5,160 Z M337.5,160 L337.5,145 L349.5,145 L349.5,160 L337.5,160 Z M349.5,160 L349.5,145 L361.5,145 L361.5,160 L349.5,160 Z M109.5,184 L109.5,169 L121.5,169 L121.5,184 L109.5,184 Z M121.5,184 L121.5,169 L133.5,169 L133.5,184 L121.5,184 Z M133.5,184 L133.5,169 L145.5,169 L145.5,184 L133.5,184 Z M145.5,184 L145.5,169 L157.5,169 L157.5,184 L145.5,184 Z M157.5,184 L157.5,169 L169.5,169 L169.5,184 L157.5,184 Z M169.5,184 L169.5,169 L181.5,169 L181.5,184 L169.5,184 Z M181.5,184 L181.5,169 L193.5,169 L193.5,184 L181.5,184 Z M193.5,184 L193.5,169 L205.5,169 L205.5,184 L193.5,184 Z M211.5,184 L211.5,169 L223.5,169 L223.5,184 L211.5,184 Z M223.5,184 L223.5,169 L235.5,169 L235.5,184 L223.5,184 Z M235.5,184 L235.5,169 L247.5,169 L247.5,184 L235.5,184 Z M247.5,184 L247.5,169 L259.5,169 L259.5,184 L247.5,184 Z M259.5,184 L259.5,169 L271.5,169 L271.5,184 L259.5,184 Z M271.5,184 L271.5,169 L283.5,169 L283.5,184 L271.5,184 Z M283.5,184 L283.5,169 L295.5,169 L295.5,184 L283.5,184 Z M295.5,184 L295.5,169 L307.5,169 L307.5,184 L295.5,184 Z M307.5,184 L307.5,169 L319.5,169 L319.5,184 L307.5,184 Z M319.5,184 L319.5,169 L331.5,169 L331.5,184 L319.5,184 Z M331.5,184 L331.5,169 L343.5,169 L343.5,184 L331.5,184 Z M343.5,184 L343.5,169 L355.5,169 L355.5,184 L343.5,184 Z M355.5,184 L355.5,169 L367.5,169 L367.5,184 L355.5,184 Z M367.5,184 L367.5,169 L379.5,169 L379.5,184 L367.5,184 Z M385.5,184 L385.5,169 L397.5,169 L397.5,184 L385.5,184 Z M121.5,208 L121.5,193 L133.5,193 L133.5,208 L121.5,208 Z M133.5,208 L133.5,193 L145.5,193 L145.5,208 L133.5,208 Z M145.5,208 L145.5,193 L157.5,193 L157.5,208 L145.5,208 Z M157.5,208 L157.5,193 L169.5,193 L169.5,208 L157.5,208 Z M169.5,208 L169.5,193 L181.5,193 L181.5,208 L169.5,208 Z M181.5,208 L181.5,193 L193.5,193 L193.5,208 L181.5,208 Z M193.5,208 L193.5,193 L205.5,193 L205.5,208 L193.5,208 Z M205.5,208 L205.5,193 L217.5,193 L217.5,208 L205.5,208 Z M217.5,208 L217.5,193 L229.5,193 L229.5,208 L217.5,208 Z M229.5,208 L229.5,193 L241.5,193 L241.5,208 L229.5,208 Z M241.5,208 L241.5,193 L253.5,193 L253.5,208 L241.5,208 Z M253.5,208 L253.5,193 L265.5,193 L265.5,208 L253.5,208 Z M271.5,208 L271.5,193 L283.5,193 L283.5,208 L271.5,208 Z M283.5,208 L283.5,193 L295.5,193 L295.5,208 L283.5,208 Z M295.5,208 L295.5,193 L307.5,193 L307.5,208 L295.5,208 Z M307.5,208 L307.5,193 L319.5,193 L319.5,208 L307.5,208 Z M319.5,208 L319.5,193 L331.5,193 L331.5,208 L319.5,208 Z M109.5,232 L109.5,217 L121.5,217 L121.5,232 L109.5,232 Z M109.5,232" id="#header-wrapper-{" fill="#DDDDDD" sketch:type="MSShapeGroup"></path>
                <path d="M565.25,75 L565.25,67.5 L571.25,67.5 L571.25,75 L565.25,75 Z M571.25,75 L571.25,67.5 L577.25,67.5 L577.25,75 L571.25,75 Z M577.25,75 L577.25,67.5 L583.25,67.5 L583.25,75 L577.25,75 Z M583.25,75 L583.25,67.5 L589.25,67.5 L589.25,75 L583.25,75 Z M589.25,75 L589.25,67.5 L595.25,67.5 L595.25,75 L589.25,75 Z M595.25,75 L595.25,67.5 L601.25,67.5 L601.25,75 L595.25,75 Z M601.25,75 L601.25,67.5 L607.25,67.5 L607.25,75 L601.25,75 Z M607.25,75 L607.25,67.5 L613.25,67.5 L613.25,75 L607.25,75 Z M565.25,87 L565.25,79.5 L571.25,79.5 L571.25,87 L565.25,87 Z M571.25,87 L571.25,79.5 L577.25,79.5 L577.25,87 L571.25,87 Z M577.25,87 L577.25,79.5 L583.25,79.5 L583.25,87 L577.25,87 Z M583.25,87 L583.25,79.5 L589.25,79.5 L589.25,87 L583.25,87 Z M589.25,87 L589.25,79.5 L595.25,79.5 L595.25,87 L589.25,87 Z M595.25,87 L595.25,79.5 L601.25,79.5 L601.25,87 L595.25,87 Z M601.25,87 L601.25,79.5 L607.25,79.5 L607.25,87 L601.25,87 Z M610.25,87 L610.25,79.5 L616.25,79.5 L616.25,87 L610.25,87 Z M565.25,111 L565.25,103.5 L571.25,103.5 L571.25,111 L565.25,111 Z M571.25,111 L571.25,103.5 L577.25,103.5 L577.25,111 L571.25,111 Z M577.25,111 L577.25,103.5 L583.25,103.5 L583.25,111 L577.25,111 Z M583.25,111 L583.25,103.5 L589.25,103.5 L589.25,111 L583.25,111 Z M589.25,111 L589.25,103.5 L595.25,103.5 L595.25,111 L589.25,111 Z M595.25,111 L595.25,103.5 L601.25,103.5 L601.25,111 L595.25,111 Z M601.25,111 L601.25,103.5 L607.25,103.5 L607.25,111 L601.25,111 Z M607.25,111 L607.25,103.5 L613.25,103.5 L613.25,111 L607.25,111 Z M613.25,111 L613.25,103.5 L619.25,103.5 L619.25,111 L613.25,111 Z M619.25,111 L619.25,103.5 L625.25,103.5 L625.25,111 L619.25,111 Z M565.25,123 L565.25,115.5 L571.25,115.5 L571.25,123 L565.25,123 Z M565.25,135 L565.25,127.5 L571.25,127.5 L571.25,135 L565.25,135 Z M571.25,135 L571.25,127.5 L577.25,127.5 L577.25,135 L571.25,135 Z M577.25,135 L577.25,127.5 L583.25,127.5 L583.25,135 L577.25,135 Z M583.25,135 L583.25,127.5 L589.25,127.5 L589.25,135 L583.25,135 Z M589.25,135 L589.25,127.5 L595.25,127.5 L595.25,135 L589.25,135 Z M595.25,135 L595.25,127.5 L601.25,127.5 L601.25,135 L595.25,135 Z M601.25,135 L601.25,127.5 L607.25,127.5 L607.25,135 L601.25,135 Z M607.25,135 L607.25,127.5 L613.25,127.5 L613.25,135 L607.25,135 Z M613.25,135 L613.25,127.5 L619.25,127.5 L619.25,135 L613.25,135 Z M619.25,135 L619.25,127.5 L625.25,127.5 L625.25,135 L619.25,135 Z M571.25,147 L571.25,139.5 L577.25,139.5 L577.25,147 L571.25,147 Z M577.25,147 L577.25,139.5 L583.25,139.5 L583.25,147 L577.25,147 Z M583.25,147 L583.25,139.5 L589.25,139.5 L589.25,147 L583.25,147 Z M589.25,147 L589.25,139.5 L595.25,139.5 L595.25,147 L589.25,147 Z M595.25,147 L595.25,139.5 L601.25,139.5 L601.25,147 L595.25,147 Z M601.25,147 L601.25,139.5 L607.25,139.5 L607.25,147 L601.25,147 Z M607.25,147 L607.25,139.5 L613.25,139.5 L613.25,147 L607.25,147 Z M613.25,147 L613.25,139.5 L619.25,139.5 L619.25,147 L613.25,147 Z M565.25,159 L565.25,151.5 L571.25,151.5 L571.25,159 L565.25,159 Z M571.25,159 L571.25,151.5 L577.25,151.5 L577.25,159 L571.25,159 Z M577.25,159 L577.25,151.5 L583.25,151.5 L583.25,159 L577.25,159 Z M583.25,159 L583.25,151.5 L589.25,151.5 L589.25,159 L583.25,159 Z M589.25,159 L589.25,151.5 L595.25,151.5 L595.25,159 L589.25,159 Z M598.25,159 L598.25,151.5 L604.25,151.5 L604.25,159 L598.25,159 Z M577.25,171 L577.25,163.5 L583.25,163.5 L583.25,171 L577.25,171 Z M583.25,171 L583.25,163.5 L589.25,163.5 L589.25,171 L583.25,171 Z M589.25,171 L589.25,163.5 L595.25,163.5 L595.25,171 L589.25,171 Z M595.25,171 L595.25,163.5 L601.25,163.5 L601.25,171 L595.25,171 Z M601.25,171 L601.25,163.5 L607.25,163.5 L607.25,171 L601.25,171 Z M607.25,171 L607.25,163.5 L613.25,163.5 L613.25,171 L607.25,171 Z M613.25,171 L613.25,163.5 L619.25,163.5 L619.25,171 L613.25,171 Z M619.25,171 L619.25,163.5 L625.25,163.5 L625.25,171 L619.25,171 Z M565.25,183 L565.25,175.5 L571.25,175.5 L571.25,183 L565.25,183 Z M571.25,183 L571.25,175.5 L577.25,175.5 L577.25,183 L571.25,183 Z M577.25,183 L577.25,175.5 L583.25,175.5 L583.25,183 L577.25,183 Z M583.25,183 L583.25,175.5 L589.25,175.5 L589.25,183 L583.25,183 Z M592.25,183 L592.25,175.5 L598.25,175.5 L598.25,183 L592.25,183 Z M601.25,183 L601.25,175.5 L607.25,175.5 L607.25,183 L601.25,183 Z M607.25,183 L607.25,175.5 L613.25,175.5 L613.25,183 L607.25,183 Z M613.25,183 L613.25,175.5 L619.25,175.5 L619.25,183 L613.25,183 Z M619.25,183 L619.25,175.5 L625.25,175.5 L625.25,183 L619.25,183 Z M565.25,195 L565.25,187.5 L571.25,187.5 L571.25,195 L565.25,195 Z M571.25,195 L571.25,187.5 L577.25,187.5 L577.25,195 L571.25,195 Z M577.25,207 L577.25,199.5 L583.25,199.5 L583.25,207 L577.25,207 Z M583.25,207 L583.25,199.5 L589.25,199.5 L589.25,207 L583.25,207 Z M589.25,207 L589.25,199.5 L595.25,199.5 L595.25,207 L589.25,207 Z M595.25,207 L595.25,199.5 L601.25,199.5 L601.25,207 L595.25,207 Z M601.25,207 L601.25,199.5 L607.25,199.5 L607.25,207 L601.25,207 Z M607.25,207 L607.25,199.5 L613.25,199.5 L613.25,207 L607.25,207 Z M613.25,207 L613.25,199.5 L619.25,199.5 L619.25,207 L613.25,207 Z M619.25,207 L619.25,199.5 L625.25,199.5 L625.25,207 L619.25,207 Z M565.25,219 L565.25,211.5 L571.25,211.5 L571.25,219 L565.25,219 Z M571.25,219 L571.25,211.5 L577.25,211.5 L577.25,219 L571.25,219 Z M577.25,219 L577.25,211.5 L583.25,211.5 L583.25,219 L577.25,219 Z M583.25,219 L583.25,211.5 L589.25,211.5 L589.25,219 L583.25,219 Z M589.25,219 L589.25,211.5 L595.25,211.5 L595.25,219 L589.25,219 Z M595.25,219 L595.25,211.5 L601.25,211.5 L601.25,219 L595.25,219 Z M601.25,219 L601.25,211.5 L607.25,211.5 L607.25,219 L601.25,219 Z M607.25,219 L607.25,211.5 L613.25,211.5 L613.25,219 L607.25,219 Z M613.25,219 L613.25,211.5 L619.25,211.5 L619.25,219 L613.25,219 Z M619.25,219 L619.25,211.5 L625.25,211.5 L625.25,219 L619.25,219 Z M565.25,231 L565.25,223.5 L571.25,223.5 L571.25,231 L565.25,231 Z M571.25,231 L571.25,223.5 L577.25,223.5 L577.25,231 L571.25,231 Z M577.25,231 L577.25,223.5 L583.25,223.5 L583.25,231 L577.25,231 Z M583.25,231 L583.25,223.5 L589.25,223.5 L589.25,231 L583.25,231 Z M592.25,231 L592.25,223.5 L598.25,223.5 L598.25,231 L592.25,231 Z M565.25,255 L565.25,247.5 L571.25,247.5 L571.25,255 L565.25,255 Z M571.25,255 L571.25,247.5 L577.25,247.5 L577.25,255 L571.25,255 Z M577.25,255 L577.25,247.5 L583.25,247.5 L583.25,255 L577.25,255 Z M583.25,255 L583.25,247.5 L589.25,247.5 L589.25,255 L583.25,255 Z M589.25,255 L589.25,247.5 L595.25,247.5 L595.25,255 L589.25,255 Z M595.25,255 L595.25,247.5 L601.25,247.5 L601.25,255 L595.25,255 Z M601.25,255 L601.25,247.5 L607.25,247.5 L607.25,255 L601.25,255 Z M607.25,255 L607.25,247.5 L613.25,247.5 L613.25,255 L607.25,255 Z M565.25,267 L565.25,259.5 L571.25,259.5 L571.25,267 L565.25,267 Z M571.25,267 L571.25,259.5 L577.25,259.5 L577.25,267 L571.25,267 Z M577.25,267 L577.25,259.5 L583.25,259.5 L583.25,267 L577.25,267 Z M583.25,267 L583.25,259.5 L589.25,259.5 L589.25,267 L583.25,267 Z M592.25,267 L592.25,259.5 L598.25,259.5 L598.25,267 L592.25,267 Z M598.25,267 L598.25,259.5 L604.25,259.5 L604.25,267 L598.25,267 Z M604.25,267 L604.25,259.5 L610.25,259.5 L610.25,267 L604.25,267 Z M610.25,267 L610.25,259.5 L616.25,259.5 L616.25,267 L610.25,267 Z M616.25,267 L616.25,259.5 L622.25,259.5 L622.25,267 L616.25,267 Z M577.25,279 L577.25,271.5 L583.25,271.5 L583.25,279 L577.25,279 Z M577.25,279" id="#header-wrapper-{-copy" fill="#DDDDDD" sketch:type="MSShapeGroup"></path>
            </g>
            <circle d="M131.5,47 C136.194421,47 140,43.1944206 140,38.5 C140,33.8055794 136.194421,30 131.5,30 C126.805579,30 123,33.8055794 123,38.5 C123,43.1944206 126.805579,47 131.5,47 Z M131.5,47" id="Oval-4-copy" fill="#DDDDDD" sketch:type="MSShapeGroup" cx="131.5" cy="38.5" r="8.5"></circle>
            <path d="M161.5,47 C166.194421,47 170,43.1944206 170,38.5 C170,33.8055794 166.194421,30 161.5,30 C156.805579,30 153,33.8055794 153,38.5 C153,43.1944206 156.805579,47 161.5,47 Z M101.5,47 C106.194421,47 110,43.1944206 110,38.5 C110,33.8055794 106.194421,30 101.5,30 C96.8055794,30 93,33.8055794 93,38.5 C93,43.1944206 96.8055794,47 101.5,47 Z M101.5,47" id="Oval-4-copy-2" fill="#DDDDDD" sketch:type="MSShapeGroup"></path>
        </g>
    </g>
</svg>