<?xml version="1.0" encoding="UTF-8" standalone="no"?>
<svg width="780px" height="230px" viewBox="0 0 780 230" version="1.1" xmlns="http://www.w3.org/2000/svg" xmlns:xlink="http://www.w3.org/1999/xlink" xmlns:sketch="http://www.bohemiancoding.com/sketch/ns">
    <title>discovering</title>
    <description>Created with Sketch (http://www.bohemiancoding.com/sketch)</description>
    <defs></defs>
    <g id="Page-1" stroke="none" stroke-width="1" fill="none" fill-rule="evenodd" sketch:type="MSPage">
        <g id="discovering" sketch:type="MSArtboardGroup">
            <g sketch:type="MSLayerGroup" transform="translate(69.000000, 6.000000)">
                <rect d="M1,0 L1,229 L641,229 L641,0 L1,0 Z M1,0" id="desktop-copy" stroke="#DDDDDD" stroke-width="4" sketch:type="MSShapeGroup" x="1" y="0" width="640" height="229"></rect>
                <rect d="M0,115 L0,119 L642,119 L642,115 L0,115 Z M0,115" id="Rectangle-6-copy" fill="#DDDDDD" sketch:type="MSShapeGroup" x="0" y="115" width="642" height="4"></rect>
                <path d="M67.259351,18 L67.0074044,18 C66.8024208,18.0044305 66.6265307,18 66.4550711,18 C66.2902572,18.0044305 66.1275109,18 65.9628447,18 C61.052395,18.3988902 56.8131632,20.3057653 56.8131632,21.0339872 C55.2936559,22.3152797 53.7677983,22.6561306 53.0081185,25.0866875 C49.2008586,26.7061727 50.7268639,36.4369659 50.7268639,36.4369659 C50.7268639,36.4369659 51.4865437,41.3048731 50.7268639,41.3048731 C49.9627536,41.3048731 49.6730002,41.5811869 49.4370032,43.2452721 C49.4370032,44.4772387 50.2033287,46.9277327 50.2033287,46.9277327 C50.2033287,46.9277327 50.9740847,49.8038474 50.9740847,50.6127039 C50.9740847,51.8377294 51.3661823,52.2521262 52.128225,52.2521262 C52.5136768,52.2521262 53.6630913,51.8377294 53.7677983,51.846738 C53.2822176,53.0719112 57.2520762,59.619115 56.4879659,61.2366803 C55.730649,62.8585284 52.2640931,67.652742 49.2207957,67.652742 C46.1777938,67.652742 35.0411893,72.4602471 33.5194668,74.2603479 C31.9980397,76.0470095 31,91 31,91 L104,91 C104,91 103.001813,76.0470095 101.482601,74.2603479 C99.9588107,72.4602471 88.8241261,67.652742 85.7811241,67.652742 C82.7333963,67.652742 79.2715662,62.8585284 78.5093758,61.2366803 C77.7477762,59.619115 81.7219175,53.0719112 81.2274759,51.846738 C81.3343981,51.8377294 82.4931166,52.2521262 82.8716273,52.2521262 C83.6335224,52.2521262 84.0256199,51.8377294 84.0256199,50.6127039 C84.0256199,49.8038474 84.7962282,46.9277327 84.7962282,46.9277327 C84.7962282,46.9277327 85.5628491,44.4772387 85.5628491,43.2495549 C85.3309873,41.5811869 85.0413815,41.3048731 84.2796342,41.3048731 C83.513161,41.3048731 84.2796342,36.4369659 84.2796342,36.4369659 C84.2796342,36.4369659 85.7989937,26.7061727 81.9892232,25.0866875 C81.2274759,22.6561306 79.7123991,22.3152797 78.1889044,21.0339872 C78.1889044,20.3057653 73.9470143,18.3988902 69.0370077,18.0536087 C68.874409,18 68.7119581,18.0044305 68.5469965,18.0044305 C68.3731739,18 68.1969885,18.0044305 68.0255289,18.0044305 C67.916539,18 67.8387103,18 67.7626537,18 L67.4999262,18 L67.259351,18 Z M67.259351,18" id="user-1" fill="#DDDDDD" sketch:type="MSShapeGroup"></path>
                <path d="M426,210 L426,198 L506,198 L506,210 L426,210 Z M322,210 L322,198 L421,198 L421,210 L322,210 Z M273,210 L273,198 L318,198 L318,210 L273,210 Z M242,210 L242,198 L269,198 L269,210 L242,210 Z M193,210 L193,198 L238,198 L238,210 L193,210 Z M143,210 L143,198 L188,198 L188,210 L143,210 Z M143,210" id="line-3" fill="#DDDDDD" sketch:type="MSShapeGroup"></path>
                <path d="M294,180 L294,168 L338.625,168 L338.625,180 L294,180 Z M245,180 L245,168 L290,168 L290,180 L245,180 Z M223,180 L223,168 L241,168 L241,180 L223,180 Z M174,180 L174,168 L219,168 L219,180 L174,180 Z M143,180 L143,168 L170,168 L170,180 L143,180 Z M143,180" id="line-2" fill="#DDDDDD" sketch:type="MSShapeGroup"></path>
                <path d="M432,160 L432,148 L476.625,148 L476.625,160 L432,160 Z M383,160 L383,148 L428,148 L428,160 L383,160 Z M481,160 L481,148 L492,148 L492,160 L481,160 Z M298,160 L298,148 L378.625,148 L378.625,160 L298,160 Z M224,160 L224,148 L294,148 L294,160 L224,160 Z M174,160 L174,148 L219,148 L219,160 L174,160 Z M143,160 L143,148 L170,148 L170,160 L143,160 Z M143,160" id="line-1" fill="#DDDDDD" sketch:type="MSShapeGroup"></path>
                <path d="M58,210 L58,198 L103,198 L103,210 L103,210 L58,210 L58,210 Z M58,210" id="label2" fill="#DDDDDD" sketch:type="MSShapeGroup"></path>
                <path d="M58,148 L103,148 L103,160 L58,160 L58,148 Z M58,148" id="label1" fill="#DDDDDD" sketch:type="MSShapeGroup"></path>
                <path d="M229,92 L229,80 L310,80 L310,92 L229,92 Z M143,92 L143,80 L224,80 L224,92 L143,92 Z M143,92" id="title" fill="#DDDDDD" sketch:type="MSShapeGroup"></path>
                <path d="M143,72 L143,48 L269,48 L269,72 L143,72 Z M276,72 L276,48 L402,48 L402,72 L276,72 Z M276,72" id="name" fill="#DDDDDD" sketch:type="MSShapeGroup"></path>
            </g>
        </g>
    </g>
</svg>