<?xml version="1.0" encoding="UTF-8" standalone="no"?>
<svg width="780px" height="230px" viewBox="0 0 780 230" version="1.1" xmlns="http://www.w3.org/2000/svg" xmlns:xlink="http://www.w3.org/1999/xlink" xmlns:sketch="http://www.bohemiancoding.com/sketch/ns">
    <title>map</title>
    <description>Created with Sketch (http://www.bohemiancoding.com/sketch)</description>
    <defs></defs>
    <g id="Page-1" stroke="none" stroke-width="1" fill="none" fill-rule="evenodd" sketch:type="MSPage">
        <g id="map" sketch:type="MSArtboardGroup">
            <g id="Group" sketch:type="MSLayerGroup" transform="translate(157.000000, 5.000000)">
                <path d="M386.442254,165.025862 L392.594366,155.793103 M397.721127,185.543103 L409,185.543103 M386.442254,205.034483 L397.721127,225.551724 M56.2788732,129.12069 L45,128.094828 M138.307042,269.663793 L144.459155,278.896552 M117.8,271.715517 L112.673239,283 M102.419718,256.327586 L91.1408451,257.353448 M108.571831,233.758621 L100.369014,225.551724 M193.676056,199.905172 L143.433803,235.810345 M114.723944,138.353448 L103.44507,137.327586 M133.180282,125.017241 L112.673239,80.9051724 M201.878873,177.336207 L157.788732,152.715517 M238.791549,75.7758621 L218.284507,76.1636379 M241.867606,58.3362069 L235.715493,49.1034483 M264.425352,56.2844828 L269.552113,45 M276.729577,72.6982759 L297.23662,71.6724138 M270.577465,94.2413793 L285.957746,114.758621 M222.385915,162.974138 L245.969014,99.3706897 M320.819718,185.543103 L350.55493,185.676466 M236.740845,185.543103 L284.932394,185.814957" id="Stroke-4" stroke="#DDDDDD" stroke-width="4" stroke-linecap="round" stroke-linejoin="round" sketch:type="MSShapeGroup"></path>
                <path d="M232.970549,170.029451 C242.34315,179.402053 242.34315,194.597947 232.970549,203.970549 C223.597947,213.34315 208.402053,213.34315 199.029451,203.970549 C189.65685,194.597947 189.65685,179.402053 199.029451,170.029451 C208.402053,160.65685 223.597947,160.65685 232.970549,170.029451" id="Fill-5" fill="#DDDDDD" sketch:type="MSShapeGroup"></path>
                <path d="M316.970549,170.029451 C326.34315,179.402053 326.34315,194.597947 316.970549,203.970549 C307.597947,213.34315 292.402053,213.34315 283.029451,203.970549 C273.65685,194.597947 273.65685,179.402053 283.029451,170.029451 C292.402053,160.65685 307.597947,160.65685 316.970549,170.029451" id="Fill-7" fill="#DDDDDD" sketch:type="MSShapeGroup"></path>
                <path d="M273.970549,61.0290244 C283.34315,70.4017236 283.34315,85.5977764 273.970549,94.9704756 C264.597947,104.343175 249.402053,104.343175 240.029451,94.9704756 C230.65685,85.5977764 230.65685,70.4017236 240.029451,61.0290244 C249.402053,51.6569919 264.597947,51.6569919 273.970549,61.0290244" id="Fill-9" fill="#DDDDDD" sketch:type="MSShapeGroup"></path>
                <path d="M155.970549,125.029549 C165.34315,134.402281 165.34315,149.598386 155.970549,158.970451 C146.597947,168.343183 131.402053,168.343183 122.029451,158.970451 C112.65685,149.598386 112.65685,134.402281 122.029451,125.029549 C131.402053,115.656817 146.597947,115.656817 155.970549,125.029549" id="Fill-11" fill="#DDDDDD" sketch:type="MSShapeGroup"></path>
                <path d="M103.970451,192.029451 C113.343183,201.402053 113.343183,216.597947 103.970451,225.970549 C94.5977194,235.34315 79.4016139,235.34315 70.0295488,225.970549 C60.6568171,216.597947 60.6568171,201.402053 70.0295488,192.029451 C79.4016139,182.65685 94.5977194,182.65685 103.970451,192.029451" id="Fill-15" fill="#DDDDDD" sketch:type="MSShapeGroup"></path>
                <path d="M119.970549,45.0295488 C129.34315,54.4022806 129.34315,69.5983861 119.970549,78.9704512 C110.597947,88.3431829 95.4020528,88.3431829 86.0294512,78.9704512 C76.6568496,69.5983861 76.6568496,54.4022806 86.0294512,45.0295488 C95.4020528,35.6568171 110.597947,35.6568171 119.970549,45.0295488" id="Fill-23" fill="#DDDDDD" sketch:type="MSShapeGroup"></path>
                <path d="M97.9705488,117.029549 C107.34315,126.402281 107.34315,141.598386 97.9705488,150.970451 C88.5979472,160.343183 73.4020528,160.343183 64.0294512,150.970451 C54.6568496,141.598386 54.6568496,126.402281 64.0294512,117.029549 C73.4020528,107.656817 88.5979472,107.656817 97.9705488,117.029549" id="Fill-25" fill="#DDDDDD" sketch:type="MSShapeGroup"></path>
                <path d="M40.9705488,109.029549 C50.3431504,118.402281 50.3431504,133.598386 40.9705488,142.970451 C31.5979472,152.343183 16.4020528,152.343183 7.02945118,142.970451 C-2.34315039,133.598386 -2.34315039,118.402281 7.02945118,109.029549 C16.4020528,99.6568171 31.5979472,99.6568171 40.9705488,109.029549" id="Fill-27" fill="#DDDDDD" sketch:type="MSShapeGroup"></path>
                <path d="M310.970549,105.029024 C320.34315,114.401724 320.34315,129.597776 310.970549,138.970476 C301.597947,148.343175 286.402053,148.343175 277.029451,138.970476 C267.65685,129.597776 267.65685,114.401724 277.029451,105.029024 C286.402053,95.6569919 301.597947,95.6569919 310.970549,105.029024" id="Fill-29" fill="#DDDDDD" sketch:type="MSShapeGroup"></path>
                <path d="M330.970549,51.0290244 C340.34315,60.4017236 340.34315,75.5977764 330.970549,84.9704756 C321.597947,94.3431748 306.402053,94.3431748 297.029451,84.9704756 C287.65685,75.5977764 287.65685,60.4017236 297.029451,51.0290244 C306.402053,41.6569919 321.597947,41.6569919 330.970549,51.0290244" id="Fill-31" fill="#DDDDDD" sketch:type="MSShapeGroup"></path>
                <path d="M295.970549,7.02902441 C305.34315,16.4017236 305.34315,31.5977764 295.970549,40.9704756 C286.597947,50.3431748 271.402053,50.3431748 262.029451,40.9704756 C252.65685,31.5977764 252.65685,16.4017236 262.029451,7.02902441 C271.402053,-2.34300814 286.597947,-2.34300814 295.970549,7.02902441" id="Fill-33" fill="#DDDDDD" sketch:type="MSShapeGroup"></path>
                <path d="M240.970549,13.0290244 C250.34315,22.4017236 250.34315,37.5977764 240.970549,46.9704756 C231.597947,56.3431748 216.402053,56.3431748 207.029451,46.9704756 C197.65685,37.5977764 197.65685,22.4017236 207.029451,13.0290244 C216.402053,3.65699186 231.597947,3.65699186 240.970549,13.0290244" id="Fill-35" fill="#DDDDDD" sketch:type="MSShapeGroup"></path>
                <path d="M214.970549,64.0290244 C224.34315,73.4017236 224.34315,88.5977764 214.970549,97.9704756 C205.597947,107.343175 190.402053,107.343175 181.029451,97.9704756 C171.65685,88.5977764 171.65685,73.4017236 181.029451,64.0290244 C190.402053,54.6569919 205.597947,54.6569919 214.970549,64.0290244" id="Fill-37" fill="#DDDDDD" sketch:type="MSShapeGroup"></path>
                <path d="M391.970451,170.029451 C401.343183,179.402053 401.343183,194.597947 391.970451,203.970549 C382.598386,213.34315 367.402281,213.34315 358.029549,203.970549 C348.656817,194.597947 348.656817,179.402053 358.029549,170.029451 C367.402281,160.65685 382.598386,160.65685 391.970451,170.029451" id="Fill-39" fill="#DDDDDD" sketch:type="MSShapeGroup"></path>
                <path d="M425.970451,219.029451 C435.343183,228.402053 435.343183,243.597947 425.970451,252.970549 C416.598386,262.34315 401.402281,262.34315 392.029549,252.970549 C382.656817,243.597947 382.656817,228.402053 392.029549,219.029451 C401.402281,209.65685 416.598386,209.65685 425.970451,219.029451" id="Fill-41" fill="#DDDDDD" sketch:type="MSShapeGroup"></path>
                <path d="M450.970451,170.029451 C460.343183,179.402053 460.343183,194.597947 450.970451,203.970549 C441.598386,213.34315 426.402281,213.34315 417.029549,203.970549 C407.656817,194.597947 407.656817,179.402053 417.029549,170.029451 C426.402281,160.65685 441.598386,160.65685 450.970451,170.029451" id="Fill-43" fill="#DDDDDD" sketch:type="MSShapeGroup"></path>
                <path d="M425.970451,120.029451 C435.343183,129.402053 435.343183,144.597947 425.970451,153.970549 C416.598386,163.34315 401.402281,163.34315 392.029549,153.970549 C382.656817,144.597947 382.656817,129.402053 392.029549,120.029451 C401.402281,110.65685 416.598386,110.65685 425.970451,120.029451" id="Fill-45" fill="#DDDDDD" sketch:type="MSShapeGroup"></path>
            </g>
        </g>
    </g>
</svg>