<?xml version="1.0" encoding="UTF-8"?>
<svg id="Layer_1" data-name="Layer 1" xmlns="http://www.w3.org/2000/svg" viewBox="0 0 1585.08 893.16">
  <path d="m561.06,368.59c.51-.29,416.51-223.17,520.59-285.69,57.42-34.49,74.42,32.48,43.53,58.01-72.06,59.57-124.73,85.27-202.21,127.67-91.93,48.36-184.65,95.1-280.75,133.78-13.93,5.61-44.14,13.36-44.27,21.92-.15,10.51,35.48,21.51,50.38,27.68,227.13,94.08,596.58,84.84,813.08-13.55,15.26-6.94,28.73-18.83,38.23-31.14,38.1-49.32,80.44-8.18,73.66,24.91-28.32,72.56-141.03,97.91-208.21,123.16-274.17,82.63-563.99,17.66-826.92-74.94-17.3-6.71-23.24-3.07-22.38,14.66,3.57,85.17,7.49,318.21,12.82,349.28,8.52,49.71-63.35,54.21-63.79,18.15-.36-29.02-15.78-316.04-15.97-355.9-.06-12.89-5.64-17.7-16.63-16.85-104.6,16.54-234.28,56.44-338.87,15.26-75.17-29.59-112.39-132.45-61.76-198.46,36.63-47.76,69.17-44.47,306.48,27.86,29.32,8.94,57.66,21.24,85.84,33.41,12.49,5.39,16,2.91,15.99-9.96-1.49-102.15-6.53-205.13,8.59-306.14,8.9-59.45,75.4-49.61,73.92,8.99-7.51,296.59-32.91,348.04,38.66,307.89Zm-185.51,66.17c7.84-2.57,10.23-12.53-.98-17.31-39.47-16.86-229.06-99.26-280.3-72.78-31.4,16.23-17.4,68.93.19,87.05,47.61,49.05,214.71,24.84,281.09,3.04Z"/>
  <path d="m1008.23,409.89c2.31,14.78-9.75,32.95-27.35,37.39-52.99,13.37-62.89-41.76-43.56-63.66,15.9-18.01,61.89-31.49,70.91,26.27Z"/>
  <path d="m1107.27,358.5c43.91-9.34,46.97,38.13,45.83,50.24-1.56,16.61-14.14,26.6-38.9,26.6-22.78,0-37.69-14.4-39.65-29.46-3.22-24.72,4.84-43.84,32.72-47.38Z"/>
</svg>